<svg xmlns="http://www.w3.org/2000/svg" width="27.083" height="25" viewBox="0 0 27.083 25">
  <path id="_ionicons_svg_md-wifi" d="M61.542,74.724A2.681,2.681,0,1,0,64.25,77.4,2.7,2.7,0,0,0,61.542,74.724ZM69.667,77.4a8.125,8.125,0,1,0-12.188,6.971l1.355-2.346A5.288,5.288,0,0,1,56.125,77.4a5.417,5.417,0,0,1,10.833,0A5.288,5.288,0,0,1,64.25,82.03L65.6,84.376A8.069,8.069,0,0,0,69.667,77.4ZM61.542,64A13.513,13.513,0,0,0,48,77.4,13.354,13.354,0,0,0,54.771,89l1.354-2.346A10.657,10.657,0,0,1,50.708,77.4a10.834,10.834,0,0,1,21.668,0,10.576,10.576,0,0,1-5.417,9.249L68.313,89a13.354,13.354,0,0,0,6.771-11.6A13.513,13.513,0,0,0,61.542,64Z" transform="translate(-48 -64)" fill="#fff"/>
</svg>
